<?xml version="1.0" encoding="utf-8"?>
<!-- Generator: Adobe Illustrator 22.1.0, SVG Export Plug-In . SVG Version: 6.00 Build 0)  -->
<svg version="1.1" id="Layer_1" xmlns="http://www.w3.org/2000/svg" xmlns:xlink="http://www.w3.org/1999/xlink" x="0px" y="0px"
	 viewBox="0 0 381.4 186" style="enable-background:new 0 0 381.4 186;" xml:space="preserve">
<style type="text/css">
	.st0{fill:#444D3E;}
	.st1{fill:#B32317;}
</style>
<g>
	<path class="st0" d="M53.3,167.5h-3.8V167H59v0.5h-3.8v9.7h-1.8v-9.7H53.3z"/>
	<path class="st0" d="M61.5,177.3v-10.2h1.8v10.2H61.5z"/>
	<path class="st0" d="M69.6,167.5h-3.8V167h9.5v0.5h-3.8v9.7h-1.8L69.6,167.5L69.6,167.5z"/>
	<path class="st0" d="M77.8,177.3v-10.2h1.8v9.7h6.2v0.5H77.8z"/>
	<path class="st0" d="M88.2,177.3v-10.2h9.5v0.5H90v4.3h7.3v0.5H90v4.5h8v0.5h-9.8V177.3z"/>
	<path class="st0" d="M118.3,174.8c0.2-0.3,0.4-1,0.4-1.5s-0.2-1.3-0.5-1.8h0.8c0.2,0.7,0.5,1.1,0.5,1.8c0,1-0.3,1.6-0.6,2l2.1,2.1
		h-1.9l-1-1.1c-1.3,0.9-2.8,1.4-5.1,1.4c-3.1,0-5.7-1.6-5.7-3.9c0-2.2,1.7-3,4-4.2l-1.8-1.8c0.1-1.2,1.5-2.1,3.2-2.1s3,0.8,3,1.9
		c0,1-1.2,1.7-2.2,2.3L118.3,174.8z M112.1,170.3c-1.9,1-3.2,1.6-3.2,3.4c0,1.6,1.6,3.3,4.4,3.3c2.2,0,3.5-0.7,4.2-1.3L112.1,170.3z
		 M112.5,169c0.8-0.3,1.9-1,1.9-1.7c0-0.8-0.7-1.3-1.8-1.3c-1,0-1.9,0.4-2,1.1L112.5,169z"/>
	<path class="st0" d="M142.6,169.3c-0.7-1.3-2.6-2.1-5.1-2.1c-3.1,0-6.1,1.5-6.1,5s3.4,4.9,6.1,4.9c2.4,0,4.2-0.6,5.2-2.1l0.9,0.4
		c-1.1,1.5-3.5,2.3-6.2,2.3c-4.7,0-8.2-2.4-8.2-5.4s3.5-5.4,8.2-5.4c2.7,0,4.8,0.7,6,2.2L142.6,169.3z"/>
	<path class="st0" d="M146.7,177.3v-10.2h1.8v9.7h6.2v0.5H146.7z"/>
	<path class="st0" d="M172,172.1c0,3.1-3.5,5.4-8,5.4s-8-2.4-8-5.4s3.5-5.4,8-5.4C168.5,166.8,172,169.1,172,172.1z M158.1,172.1
		c0,3.3,3.1,5,5.9,5c2.8,0,5.9-1.7,5.9-5s-3.1-5-5.9-5C161.2,167.2,158.1,168.8,158.1,172.1z"/>
	<path class="st0" d="M175.2,175.7c0.6,0.8,1.7,1.4,3.1,1.4c2.1,0,3.5-0.9,3.5-2.2c0-3.2-7.4-1.8-7.4-5.2c0-1.7,1.9-3,4.8-3
		c2.4,0,3.4,0.7,4,1.4l-0.7,0.3c-0.7-0.8-1.5-1.2-3.2-1.2c-1.8,0-3,1-3,2.1c0,3.1,7.5,1.8,7.5,5.2c0,1.7-2.1,3.1-5,3.1
		c-2.1,0-3.5-0.6-4.3-1.5L175.2,175.7z"/>
	<path class="st0" d="M187.2,177.3v-10.2h1.8v10.2H187.2z"/>
	<path class="st0" d="M193.4,177.3v-10.2h1.6l9.8,7.9h0.1v-7.9h1v10.5h-0.1l-11.3-9h-0.1v8.7H193.4z"/>
	<path class="st0" d="M223.8,173.1v2.8c-0.4,0.3-2.9,1.7-6.4,1.7c-4.7,0-8.2-2.4-8.2-5.4s3.5-5.4,8.2-5.4c2.7,0,4.8,0.7,6,2.2
		l-0.9,0.3c-0.7-1.3-2.6-2.1-5.1-2.1c-3.1,0-6.1,1.5-6.1,5s3.4,5,6.1,5c2.4,0,4.3-0.9,4.7-1.2v-2.8h1.7V173.1z"/>
	<path class="st0" d="M234.5,175.7c0.6,0.8,1.7,1.4,3.1,1.4c2.1,0,3.5-0.9,3.5-2.2c0-3.2-7.4-1.8-7.4-5.2c0-1.7,1.9-3,4.8-3
		c2.4,0,3.4,0.7,4,1.4l-0.7,0.3c-0.7-0.8-1.5-1.2-3.2-1.2c-1.8,0-3,1-3,2.1c0,3.1,7.5,1.8,7.5,5.2c0,1.7-2.1,3.1-5,3.1
		c-2.1,0-3.5-0.6-4.3-1.5L234.5,175.7z"/>
	<path class="st0" d="M246.5,177.3v-10.2h9.5v0.5h-7.7v4.3h7.3v0.5h-7.3v4.5h8v0.5h-9.8L246.5,177.3L246.5,177.3z"/>
	<path class="st0" d="M259.4,177.3v-10.2h4.9c4.1,0,6.2,1.2,6.2,2.9c0,1.4-1.6,2.5-5.3,2.5h-0.4l5.6,4.9h-2.2l-6.1-5.3h1.3
		c2.7,0,5.2-0.4,5.2-2c0-1.9-2.5-2.5-4.4-2.5h-2.9v9.8L259.4,177.3L259.4,177.3z"/>
	<path class="st0" d="M273.3,167l5.6,8.2l5.7-8.2h1l-7,10.5h-0.1l-7.2-10.5H273.3z"/>
	<path class="st0" d="M287.7,177.3v-10.2h1.8v10.2H287.7z"/>
	<path class="st0" d="M306.2,169.3c-0.7-1.3-2.6-2.1-5.1-2.1c-3.1,0-6.1,1.5-6.1,5s3.4,4.9,6.1,4.9c2.4,0,4.2-0.6,5.2-2.1l0.9,0.4
		c-1.1,1.5-3.5,2.3-6.2,2.3c-4.7,0-8.2-2.4-8.2-5.4s3.5-5.4,8.2-5.4c2.7,0,4.9,0.7,6,2.2L306.2,169.3z"/>
	<path class="st0" d="M310.1,177.3v-10.2h9.5v0.5h-7.7v4.3h7.3v0.5h-7.3v4.5h8v0.5h-9.8V177.3z"/>
	<path class="st0" d="M323,175.7c0.6,0.8,1.7,1.4,3.1,1.4c2.1,0,3.5-0.9,3.5-2.2c0-3.2-7.4-1.8-7.4-5.2c0-1.7,1.9-3,4.8-3
		c2.4,0,3.4,0.7,4,1.4l-0.7,0.3c-0.7-0.8-1.5-1.2-3.2-1.2c-1.8,0-3,1-3,2.1c0,3.1,7.5,1.8,7.5,5.2c0,1.7-2.1,3.1-5,3.1
		c-2.1,0-3.5-0.6-4.3-1.5L323,175.7z"/>
</g>
<g>
	<polygon class="st1" points="16.9,159.6 24.9,159.6 24.9,142.8 49.7,142.8 49.7,139.3 24.9,139.3 24.9,126 50.5,126 50.5,122.5 
		16.9,122.5 	"/>
	<path class="st1" d="M98.1,133.3c0-6.7-8.4-10.8-22.4-10.8H58v37.1h8v-33.9h9.2c3.4,0,14.5,0.6,14.5,7.6c0,5.1-9.2,6.2-17,6.2H66
		l22.9,20.2h10.4l-19.4-16.9C91.3,142.5,98.1,139,98.1,133.3z"/>
	<path class="st1" d="M130.7,121.5c-15.9,0-28.4,8.6-28.4,19.5c0,11,12.5,19.6,28.4,19.6c16,0,28.5-8.6,28.5-19.6
		C159.2,130.1,146.7,121.5,130.7,121.5z M130.7,124.7c9.7,0,19.6,5.6,19.6,16.3c0,8.1-6.7,16.4-19.6,16.4
		c-12.8,0-19.5-8.2-19.5-16.4C111.2,130.3,121,124.7,130.7,124.7z"/>
	<polygon class="st1" points="208.2,148.9 175.4,122.5 168.7,122.5 168.7,159.6 174,159.6 174,130.3 212,160.4 212.2,160.6 
		213.6,160.6 213.6,122.5 208.2,122.5 	"/>
	<polygon class="st1" points="220.1,126 233.4,126 233.4,159.6 241.4,159.6 241.4,126 254.7,126 254.7,122.5 220.1,122.5 	"/>
	<rect x="261.5" y="122.5" class="st1" width="8" height="37.1"/>
	<polygon class="st1" points="290.8,142.5 315.9,142.5 315.9,139 290.8,139 290.8,126 317.4,126 317.4,122.5 282.8,122.5 
		282.8,159.6 318.5,159.6 318.5,156.1 290.8,156.1 	"/>
	<path class="st1" d="M349.4,142.7c11.3-0.2,18-3.7,18-9.4c0-6.7-8.4-10.8-22.4-10.8h-17.6v37.1h8v-33.9h9.2
		c3.4,0,14.5,0.6,14.5,7.6c0,5.1-9.2,6.2-17,6.2h-6.7l22.9,20.2h10.4L349.4,142.7z"/>
</g>
<polygon class="st1" points="150.9,5.3 150.9,104.8 169.9,104.8 169.9,74.8 286.8,104.1 286.8,96.4 170.1,58.3 170.1,30 293.3,65 
	293.3,57.2 "/>
<polygon class="st0" points="151,5.3 151,104.8 124.4,104.8 124.4,75.6 89.2,86.5 89.2,73.7 124.2,58.3 124.2,30 82.6,44.9 
	82.6,33.7 "/>
<g>
	<rect x="10.9" y="114.6" class="st0" width="359.5" height="0.9"/>
</g>
</svg>
