<?xml version="1.0" encoding="utf-8"?>
<!-- Generator: Adobe Illustrator 22.1.0, SVG Export Plug-In . SVG Version: 6.00 Build 0)  -->
<svg version="1.1" id="Layer_1" xmlns="http://www.w3.org/2000/svg" xmlns:xlink="http://www.w3.org/1999/xlink" x="0px" y="0px"
	 viewBox="0 0 488.5 76" style="enable-background:new 0 0 488.5 76;" xml:space="preserve">
<style type="text/css">
	.st0{fill:#FFFFFF;}
	.st1{fill:#444D3E;}
</style>
<g>
	<path class="st0" d="M173.1,65.8h-3.8v-0.5h9.5v0.5H175v9.7h-1.8L173.1,65.8L173.1,65.8z"/>
	<path class="st0" d="M181.3,75.6V65.4h1.8v10.2H181.3z"/>
	<path class="st0" d="M189.4,65.8h-3.8v-0.5h9.5v0.5h-3.8v9.7h-1.8L189.4,65.8L189.4,65.8z"/>
	<path class="st0" d="M197.6,75.6V65.4h1.8v9.7h6.2v0.5H197.6z"/>
	<path class="st0" d="M208,75.6V65.4h9.5v0.5h-7.7v4.3h7.3v0.5h-7.3v4.5h8v0.5H208V75.6z"/>
	<path class="st0" d="M238.1,73.1c0.2-0.3,0.4-1,0.4-1.5s-0.2-1.3-0.5-1.8h0.8c0.2,0.7,0.5,1.1,0.5,1.8c0,1-0.3,1.6-0.6,2l2.1,2.1
		h-1.9l-1-1.1c-1.3,0.9-2.8,1.4-5.1,1.4c-3.1,0-5.7-1.6-5.7-3.9c0-2.2,1.7-3,4-4.2l-1.8-1.8c0.1-1.2,1.5-2.1,3.2-2.1s3,0.8,3,1.9
		c0,1-1.2,1.7-2.2,2.3L238.1,73.1z M231.9,68.6c-1.9,1-3.2,1.6-3.2,3.4c0,1.6,1.6,3.3,4.4,3.3c2.2,0,3.5-0.7,4.2-1.3L231.9,68.6z
		 M232.3,67.3c0.8-0.3,1.9-1,1.9-1.7c0-0.8-0.7-1.3-1.8-1.3c-1,0-1.9,0.4-2,1.1L232.3,67.3z"/>
	<path class="st0" d="M262.4,67.6c-0.7-1.3-2.6-2.1-5.1-2.1c-3.1,0-6.1,1.5-6.1,5s3.4,4.9,6.1,4.9c2.4,0,4.2-0.6,5.2-2.1l0.9,0.4
		c-1.1,1.5-3.5,2.3-6.2,2.3c-4.7,0-8.2-2.4-8.2-5.4s3.5-5.4,8.2-5.4c2.7,0,4.8,0.7,6,2.2L262.4,67.6z"/>
	<path class="st0" d="M266.5,75.6V65.4h1.8v9.7h6.2v0.5H266.5z"/>
	<path class="st0" d="M291.8,70.4c0,3.1-3.5,5.4-8,5.4s-8-2.4-8-5.4s3.5-5.4,8-5.4C288.3,65.1,291.8,67.4,291.8,70.4z M277.9,70.4
		c0,3.3,3.1,5,5.9,5s5.9-1.7,5.9-5s-3.1-5-5.9-5C281,65.5,277.9,67.1,277.9,70.4z"/>
	<path class="st0" d="M295,74c0.6,0.8,1.7,1.4,3.1,1.4c2.1,0,3.5-0.9,3.5-2.2c0-3.2-7.4-1.8-7.4-5.2c0-1.7,1.9-3,4.8-3
		c2.4,0,3.4,0.7,4,1.4l-0.7,0.3c-0.7-0.8-1.5-1.2-3.2-1.2c-1.8,0-3,1-3,2.1c0,3.1,7.5,1.8,7.5,5.2c0,1.7-2.1,3.1-5,3.1
		c-2.1,0-3.5-0.6-4.3-1.5L295,74z"/>
	<path class="st0" d="M307,75.6V65.4h1.8v10.2H307z"/>
	<path class="st0" d="M313.2,75.6V65.4h1.6l9.8,7.9h0.1v-7.9h1v10.5h-0.1l-11.3-9h-0.1v8.7H313.2z"/>
	<path class="st0" d="M343.6,71.4v2.8c-0.4,0.3-2.9,1.7-6.4,1.7c-4.7,0-8.2-2.4-8.2-5.4s3.5-5.4,8.2-5.4c2.7,0,4.8,0.7,6,2.2
		l-0.9,0.3c-0.7-1.3-2.6-2.1-5.1-2.1c-3.1,0-6.1,1.5-6.1,5s3.4,5,6.1,5c2.4,0,4.3-0.9,4.7-1.2v-2.8L343.6,71.4L343.6,71.4
		L343.6,71.4z"/>
	<path class="st0" d="M354.3,74c0.6,0.8,1.7,1.4,3.1,1.4c2.1,0,3.5-0.9,3.5-2.2c0-3.2-7.4-1.8-7.4-5.2c0-1.7,1.9-3,4.8-3
		c2.4,0,3.4,0.7,4,1.4l-0.7,0.3c-0.7-0.8-1.5-1.2-3.2-1.2c-1.8,0-3,1-3,2.1c0,3.1,7.5,1.8,7.5,5.2c0,1.7-2.1,3.1-5,3.1
		c-2.1,0-3.5-0.6-4.3-1.5L354.3,74z"/>
	<path class="st0" d="M366.3,75.6V65.4h9.5v0.5h-7.7v4.3h7.3v0.5h-7.3v4.5h8v0.5h-9.8V75.6L366.3,75.6z"/>
	<path class="st0" d="M379.2,75.6V65.4h4.9c4.1,0,6.2,1.2,6.2,2.9c0,1.4-1.6,2.5-5.3,2.5h-0.4l5.6,4.9H388l-6.1-5.3h1.3
		c2.7,0,5.2-0.4,5.2-2c0-1.9-2.5-2.5-4.4-2.5h-2.9v9.8L379.2,75.6L379.2,75.6z"/>
	<path class="st0" d="M393.1,65.3l5.6,8.2l5.7-8.2h1l-7,10.5h-0.1l-7.2-10.5H393.1z"/>
	<path class="st0" d="M407.5,75.6V65.4h1.8v10.2H407.5z"/>
	<path class="st0" d="M426,67.6c-0.7-1.3-2.6-2.1-5.1-2.1c-3.1,0-6.1,1.5-6.1,5s3.4,4.9,6.1,4.9c2.4,0,4.2-0.6,5.2-2.1l0.9,0.4
		c-1.1,1.5-3.5,2.3-6.2,2.3c-4.7,0-8.2-2.4-8.2-5.4s3.5-5.4,8.2-5.4c2.7,0,4.9,0.7,6,2.2L426,67.6z"/>
	<path class="st0" d="M429.9,75.6V65.4h9.5v0.5h-7.7v4.3h7.3v0.5h-7.3v4.5h8v0.5h-9.8V75.6z"/>
	<path class="st0" d="M442.8,74c0.6,0.8,1.7,1.4,3.1,1.4c2.1,0,3.5-0.9,3.5-2.2c0-3.2-7.4-1.8-7.4-5.2c0-1.7,1.9-3,4.8-3
		c2.4,0,3.4,0.7,4,1.4l-0.7,0.3c-0.7-0.8-1.5-1.2-3.2-1.2c-1.8,0-3,1-3,2.1c0,3.1,7.5,1.8,7.5,5.2c0,1.7-2.1,3.1-5,3.1
		c-2.1,0-3.5-0.6-4.3-1.5L442.8,74z"/>
</g>
<g>
	<polygon class="st0" points="136.7,57.9 144.7,57.9 144.7,41.1 169.5,41.1 169.5,37.6 144.7,37.6 144.7,24.3 170.3,24.3 
		170.3,20.8 136.7,20.8 	"/>
	<path class="st0" d="M217.9,31.6c0-6.7-8.4-10.8-22.4-10.8h-17.7v37.1h8V24h9.2c3.4,0,14.5,0.6,14.5,7.6c0,5.1-9.2,6.2-17,6.2h-6.7
		L208.7,58h10.4l-19.4-16.9C211.1,40.8,217.9,37.3,217.9,31.6z"/>
	<path class="st0" d="M250.5,19.8c-15.9,0-28.4,8.6-28.4,19.5c0,11,12.5,19.6,28.4,19.6c16,0,28.5-8.6,28.5-19.6
		C279,28.4,266.5,19.8,250.5,19.8z M250.5,23c9.7,0,19.6,5.6,19.6,16.3c0,8.1-6.7,16.4-19.6,16.4c-12.8,0-19.5-8.2-19.5-16.4
		C231,28.6,240.8,23,250.5,23z"/>
	<polygon class="st0" points="328,47.2 295.2,20.8 288.5,20.8 288.5,57.9 293.8,57.9 293.8,28.6 331.8,58.7 332,58.9 333.4,58.9 
		333.4,20.8 328,20.8 	"/>
	<polygon class="st0" points="339.9,24.3 353.2,24.3 353.2,57.9 361.2,57.9 361.2,24.3 374.5,24.3 374.5,20.8 339.9,20.8 	"/>
	<rect x="381.3" y="20.8" class="st0" width="8" height="37.1"/>
	<polygon class="st0" points="410.6,40.8 435.7,40.8 435.7,37.3 410.6,37.3 410.6,24.3 437.2,24.3 437.2,20.8 402.6,20.8 
		402.6,57.9 438.3,57.9 438.3,54.4 410.6,54.4 	"/>
	<path class="st0" d="M469.2,41c11.3-0.2,18-3.7,18-9.4c0-6.7-8.4-10.8-22.4-10.8h-17.6v37.1h8V24h9.2c3.4,0,14.5,0.6,14.5,7.6
		c0,5.1-9.2,6.2-17,6.2h-6.7L478.1,58h10.4L469.2,41z"/>
</g>
<polygon class="st0" points="39.8,0 39.8,58 50.9,58 50.9,40.5 119,57.6 119,53.1 51,30.9 51,14.4 122.8,34.8 122.8,30.3 "/>
<polygon class="st1" points="39.9,0 39.9,58 24.4,58 24.4,41 3.8,47.3 3.8,39.9 24.2,30.9 24.2,14.4 0,23.1 0,16.6 "/>
</svg>
